<svg width="88" height="88" viewBox="0 0 88 88" fill="none" xmlns="http://www.w3.org/2000/svg">
<mask id="mask0_2655_822" style="mask-type:luminance" maskUnits="userSpaceOnUse" x="40" y="7" width="32" height="65">
<path d="M71.808 7.97852H40.128V71.8079H71.808V7.97852Z" fill="white"/>
</mask>
<g mask="url(#mask0_2655_822)">
<path d="M71.3039 49.1885C71.4231 49.228 71.4634 49.3059 71.4249 49.4232L68.4549 55.7152C68.4155 55.7959 68.3568 55.8362 68.2789 55.8362H46.0809C46.0809 55.8362 46.0607 55.8362 46.0222 55.8362H42.9972C42.8771 55.8362 42.8176 55.7757 42.8176 55.6565C42.8176 55.5374 42.8771 55.4769 42.9972 55.4769C43.7865 55.4769 44.4575 55.201 45.0102 54.6482C45.5648 54.0936 45.8426 53.4217 45.8426 52.6315V17.3765C45.8426 16.5845 45.5648 15.9126 45.0102 15.3599C44.4575 14.8053 43.7865 14.5275 42.9972 14.5275C42.8771 14.5275 42.8176 14.4689 42.8176 14.3515C42.8176 14.2324 42.8771 14.1719 42.9972 14.1719H51.1262C51.2454 14.1719 51.3059 14.2324 51.3059 14.3515C51.3059 14.4689 51.2454 14.5275 51.1262 14.5275C50.3342 14.5275 49.6605 14.8053 49.1059 15.3599C48.5531 15.9126 48.2772 16.5845 48.2772 17.3765V52.6315C48.2772 53.4217 48.5531 54.0936 49.1059 54.6482C49.6605 55.201 50.3342 55.4769 51.1262 55.4769H61.9869C63.1327 55.4769 64.3006 55.1909 65.4886 54.6189C66.6766 54.045 67.7637 53.2934 68.7519 52.3639C69.7419 51.4325 70.5137 50.394 71.0692 49.2472C71.1077 49.128 71.1866 49.1079 71.3039 49.1885Z" fill="#FFFEFD"/>
</g>
<mask id="mask1_2655_822" style="mask-type:luminance" maskUnits="userSpaceOnUse" x="19" y="24" width="39" height="64">
<path d="M57.9627 24.4053H19.2427V87.9999H57.9627V24.4053Z" fill="white"/>
</mask>
<g mask="url(#mask1_2655_822)">
<path d="M55.9229 71.9222C56.0008 71.9222 56.0595 71.9433 56.0989 71.9845C56.1374 72.0239 56.1576 72.0634 56.1576 72.1019C56.1576 72.221 56.0787 72.2815 55.9229 72.2815H52.8942C52.8942 72.2815 52.7255 72.2815 52.3882 72.2815C52.0527 72.2815 51.7172 72.2815 51.3799 72.2815C51.0444 72.2815 50.8776 72.2815 50.8776 72.2815C50.8776 72.2815 50.619 72.2815 50.1039 72.2815C49.5905 72.2815 49.0855 72.2815 48.5896 72.2815C48.0955 72.2815 47.8489 72.2815 47.8489 72.2815C47.6921 72.2815 47.6142 72.221 47.6142 72.1019C47.6142 71.9827 47.6921 71.9222 47.8489 71.9222C48.6409 71.9222 49.3128 71.6463 49.8655 71.0935C50.4201 70.5389 50.6979 69.867 50.6979 69.0769V50.7949C50.6979 49.0156 50.0837 47.4829 48.8572 46.1969C47.6325 44.9117 46.1292 44.2086 44.3472 44.0885C44.1905 44.0885 44.0722 44.0885 43.9916 44.0885C42.1729 44.0885 40.5119 44.6037 39.0086 45.6322C37.8985 46.4242 37.0075 47.4133 36.3356 48.5985C36.3356 48.6407 36.3154 48.7195 36.2769 48.8369C35.0889 51.1322 33.2886 52.2799 30.8759 52.2799C30.7971 52.2799 30.7182 52.2799 30.6376 52.2799C29.2928 52.2019 28.0865 51.7262 27.0186 50.8535C26.0698 50.0249 25.4364 48.978 25.1192 47.7112C25.0798 47.4719 25.0404 47.2144 25.0019 46.9375C24.9597 46.7395 24.9396 46.5415 24.9396 46.3435V33.8219C24.9396 33.0299 24.6618 32.3579 24.1072 31.8052C23.5545 31.2506 22.8835 30.9729 22.0942 30.9729C21.9741 30.9729 21.9146 30.9142 21.9146 30.7969C21.9146 30.6777 21.9741 30.6172 22.0942 30.6172H25.1779C25.1779 30.6172 25.3447 30.6172 25.6802 30.6172C26.0176 30.6172 26.3549 30.6172 26.6922 30.6172C27.0296 30.6172 27.1982 30.6172 27.1982 30.6172C27.1982 30.6172 27.4448 30.6172 27.9389 30.6172C28.4321 30.6172 28.9362 30.6172 29.4496 30.6172C29.9647 30.6172 30.2232 30.6172 30.2232 30.6172C30.3424 30.6172 30.4029 30.6777 30.4029 30.7969C30.4029 30.9142 30.3424 30.9729 30.2232 30.9729C29.4312 30.9729 28.7575 31.2506 28.2029 31.8052C27.6501 32.3579 27.3742 33.0299 27.3742 33.8219V48.3015C27.3742 48.3015 27.3742 48.3226 27.3742 48.3639C27.3742 49.2732 27.6905 50.0643 28.3239 50.7362C28.9564 51.409 29.7484 51.7849 30.6999 51.8655C30.7384 51.8655 30.7971 51.8655 30.8759 51.8655C33.1318 51.8655 34.8139 50.7765 35.9212 48.5985C35.9212 48.56 35.9597 48.5014 36.0386 48.4225C36.7105 47.1566 37.6409 46.1272 38.8289 45.3352C40.3707 44.2279 42.0922 43.6742 43.9916 43.6742C44.0722 43.6742 44.1905 43.6944 44.3472 43.7329C47.077 43.8117 49.3128 44.9199 51.0536 47.0585C51.8841 48.0467 52.4588 49.1733 52.7769 50.4392C52.9749 51.2312 53.0739 52.0232 53.0739 52.8152V69.0769C53.1124 69.867 53.4085 70.5389 53.9612 71.0935C54.5158 71.6463 55.1694 71.9222 55.9229 71.9222ZM30.2232 71.9222C30.2617 71.9222 30.3011 71.9433 30.3406 71.9845C30.3818 72.0239 30.4029 72.0634 30.4029 72.1019C30.4029 72.221 30.3424 72.2815 30.2232 72.2815H27.1982C27.1982 72.2815 27.0296 72.2815 26.6922 72.2815C26.3549 72.2815 26.0176 72.2815 25.6802 72.2815C25.3447 72.2815 25.1779 72.2815 25.1779 72.2815C25.1779 72.2815 24.9194 72.2815 24.4042 72.2815C23.8909 72.2815 23.3776 72.2815 22.8642 72.2815C22.3509 72.2815 22.0942 72.2815 22.0942 72.2815C21.9741 72.2815 21.9146 72.221 21.9146 72.1019C21.9146 71.9827 21.9741 71.9222 22.0942 71.9222C22.8835 71.9222 23.5545 71.6463 24.1072 71.0935C24.6618 70.5389 24.9396 69.867 24.9396 69.0769V51.9829C24.9396 51.9049 24.9799 51.8454 25.0606 51.8032C25.1385 51.7647 25.2182 51.7849 25.2989 51.8655C25.8901 52.4577 26.5428 52.9316 27.2569 53.2882C27.3348 53.3276 27.3742 53.3872 27.3742 53.4679V69.0769C27.3742 69.867 27.6501 70.5389 28.2029 71.0935C28.7575 71.6463 29.4312 71.9222 30.2232 71.9222ZM47.8489 30.9729C47.7701 30.9729 47.7114 30.9536 47.6729 30.9142C47.6335 30.8757 47.6142 30.8363 47.6142 30.7969C47.6142 30.6777 47.6921 30.6172 47.8489 30.6172H50.8776C50.8776 30.6172 51.0444 30.6172 51.3799 30.6172C51.7172 30.6172 52.0527 30.6172 52.3882 30.6172C52.7255 30.6172 52.8942 30.6172 52.8942 30.6172C52.8942 30.6172 53.1509 30.6172 53.6642 30.6172C54.1794 30.6172 54.6845 30.6172 55.1786 30.6172C55.6745 30.6172 55.9229 30.6172 55.9229 30.6172C56.0787 30.6172 56.1576 30.6777 56.1576 30.7969C56.1576 30.9142 56.0787 30.9729 55.9229 30.9729C55.1694 30.9729 54.5158 31.2506 53.9612 31.8052C53.4085 32.3579 53.1124 33.0299 53.0739 33.8219V45.5149C53.0739 45.5937 53.0336 45.6524 52.9529 45.6909C52.9529 45.6909 52.9327 45.6909 52.8942 45.6909C52.8154 45.6909 52.7567 45.6716 52.7182 45.6322C52.1627 44.9209 51.5091 44.2884 50.7565 43.7329C50.7171 43.6944 50.6979 43.6357 50.6979 43.5569V33.8219C50.6979 33.0299 50.4201 32.3579 49.8655 31.8052C49.3128 31.2506 48.6409 30.9729 47.8489 30.9729Z" fill="#FFFEFD"/>
</g>
<mask id="mask2_2655_822" style="mask-type:luminance" maskUnits="userSpaceOnUse" x="5" y="5" width="39" height="37">
<path d="M43.4134 5.63184H5.63202V41.0665H43.4134V5.63184Z" fill="white"/>
</mask>
<g mask="url(#mask2_2655_822)">
<path d="M20.0314 38.3349L20.4457 36.4979L20.2807 36.3952L19.3017 37.1909L19.2907 37.1836L19.5291 35.9259L19.3861 35.8379L17.8974 37.0076L18.0551 37.1029L19.1697 36.2302L19.1807 36.2376L18.9057 37.6346L18.9644 37.6712L20.0681 36.7766L20.0827 36.7839L19.7674 38.1699L20.0314 38.3349Z" fill="#FFFEFD"/>
<path d="M16.1029 33.8156L16.0443 33.8669C15.9251 33.9724 15.8371 34.0796 15.7803 34.1896C15.7243 34.2996 15.6923 34.4087 15.6849 34.5159C15.6776 34.6241 15.6941 34.7268 15.7326 34.8276C15.772 34.9303 15.8279 35.0238 15.9013 35.1099C15.9819 35.1998 16.0718 35.2694 16.1689 35.3189C16.2643 35.3703 16.3669 35.3978 16.4769 35.4033C16.5869 35.4079 16.6997 35.3895 16.8143 35.3483C16.927 35.3061 17.037 35.2383 17.1443 35.1429C17.2323 35.0641 17.3074 34.9743 17.3679 34.8716C17.4293 34.7708 17.4697 34.6644 17.4889 34.5489C17.5063 34.4344 17.4981 34.317 17.4633 34.1969C17.4266 34.075 17.3569 33.954 17.2543 33.8339C17.1571 33.7194 17.0453 33.6314 16.9206 33.5699C16.7959 33.5094 16.6658 33.4774 16.5283 33.4746L16.5173 33.6323C16.5814 33.6396 16.641 33.6488 16.6969 33.6579C16.7538 33.668 16.8051 33.6827 16.8509 33.7019C16.8977 33.7221 16.9426 33.7459 16.9866 33.7753C17.0288 33.8028 17.0691 33.8376 17.1076 33.8816C17.1516 33.9329 17.191 33.9944 17.2249 34.0649C17.257 34.1337 17.2744 34.2079 17.2763 34.2886C17.279 34.3693 17.2598 34.4564 17.2176 34.5489C17.1763 34.6424 17.1003 34.7359 16.9903 34.8313L16.1029 33.8156ZM16.8839 34.9266C16.8106 34.9871 16.7354 35.0403 16.6566 35.0843C16.5759 35.1283 16.4971 35.1576 16.4183 35.1723C16.3376 35.1869 16.2606 35.1833 16.1873 35.1613C16.1139 35.1393 16.0498 35.0953 15.9929 35.0293C15.8829 34.9019 15.8481 34.7598 15.8866 34.6039C15.9233 34.4454 16.0287 34.2914 16.2019 34.1419L16.8839 34.9266Z" fill="#FFFEFD"/>
<path d="M12.915 31.5531L13.0433 31.8244L13.9526 31.3991L13.96 31.4137C13.9141 31.4632 13.8811 31.5146 13.861 31.5677C13.839 31.6191 13.8271 31.6732 13.8243 31.7291C13.8225 31.7832 13.8271 31.8391 13.839 31.8977C13.8518 31.9546 13.8701 32.0077 13.894 32.0591C13.9453 32.1672 14.0113 32.2543 14.092 32.3231C14.1726 32.3937 14.2661 32.445 14.3706 32.4771C14.4761 32.511 14.5888 32.522 14.708 32.5101C14.8253 32.4972 14.9491 32.4606 15.0783 32.4001C15.2057 32.3414 15.3148 32.269 15.4046 32.1837C15.4926 32.1012 15.5577 32.0077 15.599 31.9051C15.6411 31.8024 15.6613 31.6979 15.6613 31.5897C15.6595 31.4825 15.632 31.3752 15.5806 31.2671C15.4633 31.0132 15.2836 30.8931 15.0416 30.9077L15.0343 30.8931L15.2983 30.7684L15.17 30.4971L12.915 31.5531ZM14.653 31.0691C14.7245 31.0379 14.7978 31.0196 14.873 31.0141C14.9491 31.0095 15.0187 31.0159 15.082 31.0324C15.1461 31.0498 15.2048 31.0801 15.258 31.1241C15.3121 31.1662 15.3524 31.2185 15.379 31.2817C15.4138 31.3505 15.4331 31.4202 15.4376 31.4907C15.4404 31.5595 15.4248 31.6301 15.39 31.7034C15.3561 31.7749 15.3038 31.8427 15.2323 31.9087C15.159 31.9729 15.0618 32.0334 14.939 32.0921C14.8171 32.1489 14.7071 32.1837 14.609 32.1984C14.5118 32.2131 14.4247 32.2094 14.3486 32.1874C14.2707 32.1682 14.2056 32.1342 14.1543 32.0847C14.1011 32.0362 14.0581 31.9784 14.026 31.9124C13.9994 31.8519 13.9856 31.7896 13.9856 31.7254C13.9838 31.6594 13.9985 31.5952 14.0296 31.5311C14.059 31.4651 14.1021 31.4046 14.158 31.3477C14.2148 31.2918 14.2863 31.2432 14.3743 31.2011L14.653 31.0691Z" fill="#FFFEFD"/>
<path d="M11.9628 27.6855L12.0104 27.9825L13.0041 27.8249V27.8395C12.9454 27.8744 12.8996 27.9147 12.8648 27.9605C12.8309 28.0045 12.8052 28.054 12.7878 28.1072C12.7685 28.1585 12.7575 28.2135 12.7548 28.2722C12.7502 28.329 12.7529 28.384 12.7621 28.4372C12.7795 28.5573 12.8189 28.6636 12.8794 28.7562C12.9381 28.847 13.0133 28.9212 13.1031 28.9799C13.1939 29.0385 13.2993 29.0789 13.4184 29.1009C13.5358 29.1229 13.6641 29.1229 13.8034 29.1009C13.9428 29.0789 14.0665 29.0404 14.1738 28.9835C14.2819 28.9249 14.3709 28.8543 14.4414 28.7709C14.5102 28.6856 14.5588 28.5903 14.5881 28.4849C14.6156 28.3804 14.6202 28.2676 14.6028 28.1475C14.5588 27.8744 14.4194 27.7094 14.1848 27.6525V27.6379L14.4708 27.5939L14.4231 27.2969L11.9628 27.6855ZM13.7668 27.7039C13.8456 27.692 13.9208 27.6947 13.9941 27.7112C14.0656 27.7259 14.1298 27.7506 14.1884 27.7845C14.2471 27.8194 14.2948 27.8643 14.3314 27.9202C14.3681 27.977 14.3929 28.0394 14.4048 28.1072C14.4176 28.1805 14.4158 28.253 14.4011 28.3235C14.3846 28.3923 14.3498 28.4555 14.2984 28.5142C14.2453 28.5729 14.1738 28.6242 14.0858 28.6682C13.9978 28.7122 13.8878 28.7452 13.7558 28.7672C13.6238 28.7874 13.5092 28.7892 13.4111 28.7745C13.3139 28.7599 13.2305 28.7333 13.1618 28.6939C13.0939 28.6526 13.0408 28.6013 13.0041 28.5399C12.9656 28.4766 12.9409 28.4097 12.9308 28.3382C12.9216 28.2722 12.9253 28.208 12.9418 28.1439C12.9592 28.0806 12.9913 28.0229 13.0371 27.9715C13.0839 27.9184 13.1425 27.8716 13.2131 27.8322C13.2846 27.7937 13.3671 27.7662 13.4624 27.7515L13.7668 27.7039Z" fill="#FFFEFD"/>
<path d="M12.6618 25.2716L14.4328 25.4219L14.4585 25.1249L12.6875 24.9746L12.6618 25.2716ZM12.0972 25.2679C12.1485 25.2734 12.1953 25.2587 12.2365 25.2239C12.2787 25.1872 12.3016 25.1451 12.3062 25.0956C12.3089 25.0424 12.2933 24.9956 12.2585 24.9562C12.2246 24.915 12.1815 24.8921 12.1302 24.8866C12.077 24.882 12.0293 24.8966 11.9872 24.9306C11.9459 24.9654 11.9239 25.0094 11.9212 25.0626C11.9166 25.1121 11.9313 25.157 11.9652 25.1982C12 25.2404 12.044 25.2633 12.0972 25.2679Z" fill="#FFFEFD"/>
<path d="M15.2394 21.8686L14.1468 21.5019C14.1055 21.49 14.0478 21.4754 13.9744 21.4579C13.9011 21.4414 13.8241 21.4396 13.7434 21.4543C13.6628 21.4689 13.5849 21.5084 13.5088 21.5716C13.4309 21.6358 13.3676 21.7421 13.3181 21.8906C13.2943 21.9548 13.2833 22.0318 13.2851 22.1216C13.2851 22.2124 13.3126 22.3104 13.3658 22.4149L13.3988 22.4846L13.3951 22.4993L13.1788 22.4259L13.0834 22.7119L14.7701 23.2766L14.8654 22.9906L13.8204 22.6423C13.7324 22.6129 13.6619 22.5763 13.6078 22.5323C13.5519 22.4864 13.5106 22.4351 13.4831 22.3783C13.4538 22.3196 13.4391 22.26 13.4391 22.1986C13.4373 22.1381 13.4455 22.0776 13.4648 22.0189C13.4969 21.9236 13.5399 21.8567 13.5931 21.8173C13.6472 21.7788 13.7031 21.7549 13.7618 21.7476C13.8186 21.7384 13.8718 21.7403 13.9231 21.7549C13.9744 21.7678 14.0111 21.7769 14.0331 21.7843L15.1441 22.1546L15.2394 21.8686Z" fill="#FFFEFD"/>
<path d="M16.8483 19.3532C16.9363 19.4146 17.0032 19.4779 17.0499 19.5439C17.0985 19.6081 17.1288 19.6722 17.1416 19.7382C17.1563 19.8024 17.1535 19.8666 17.1343 19.9326C17.1168 19.9967 17.0884 20.0572 17.0499 20.1159C16.9784 20.2186 16.8941 20.2836 16.7969 20.3102C16.7016 20.3377 16.5916 20.3469 16.4669 20.3396L16.5036 20.6036C16.5302 20.6008 16.5668 20.5944 16.6136 20.5852C16.6622 20.5751 16.7163 20.5577 16.7749 20.5339C16.8354 20.5073 16.8978 20.4706 16.9619 20.4239C17.0279 20.3753 17.0875 20.3102 17.1416 20.2296C17.2443 20.0829 17.3048 19.95 17.3249 19.8299C17.3442 19.708 17.3359 19.598 17.2993 19.4999C17.2644 19.4 17.2085 19.3092 17.1306 19.2286C17.0518 19.1479 16.9638 19.0736 16.8666 19.0049L15.4256 18.0186L15.2569 18.2642L15.4879 18.4219L15.4806 18.4366C15.3807 18.4026 15.2817 18.4072 15.1836 18.4512C15.0837 18.4952 14.9911 18.5796 14.9049 18.7042C14.8343 18.8069 14.7903 18.9123 14.7729 19.0196C14.7537 19.125 14.7573 19.2304 14.7839 19.3349C14.8087 19.4376 14.8573 19.5384 14.9306 19.6356C15.0021 19.7336 15.0956 19.8226 15.2129 19.9032C15.3284 19.9821 15.4439 20.038 15.5613 20.0719C15.6786 20.104 15.7913 20.1141 15.8986 20.1012C16.0058 20.0866 16.1048 20.0526 16.1956 19.9986C16.2882 19.9426 16.3688 19.8647 16.4376 19.7639C16.5128 19.6566 16.5568 19.5466 16.5696 19.4339C16.5815 19.3221 16.5522 19.2176 16.4816 19.1222L16.4889 19.1076L16.8483 19.3532ZM16.0966 18.8399C16.1791 18.8967 16.2442 18.9572 16.2909 19.0232C16.3368 19.0892 16.3698 19.1552 16.3899 19.2212C16.4092 19.2872 16.4128 19.3532 16.4009 19.4192C16.3881 19.4834 16.3643 19.5421 16.3276 19.5952C16.2955 19.642 16.2524 19.6869 16.1993 19.7309C16.1479 19.7731 16.0828 19.8006 16.0049 19.8152C15.9288 19.8281 15.8399 19.8216 15.7373 19.7969C15.6346 19.7731 15.5191 19.7153 15.3889 19.6246C15.2523 19.532 15.1561 19.4394 15.0993 19.3459C15.0433 19.2533 15.0113 19.1681 15.0039 19.0892C14.9948 19.0086 15.0021 18.9389 15.0259 18.8802C15.0479 18.8197 15.069 18.7739 15.0883 18.7446C15.1323 18.6813 15.1863 18.6336 15.2496 18.6016C15.311 18.5704 15.3779 18.5539 15.4513 18.5539C15.5228 18.5521 15.5961 18.5631 15.6713 18.5869C15.7473 18.6116 15.8179 18.6474 15.8839 18.6932L16.0966 18.8399Z" fill="#FFFEFD"/>
<path d="M18.0531 15.9715C18.0091 15.9229 17.956 15.889 17.8955 15.8688C17.8368 15.8496 17.7736 15.845 17.7048 15.8542C17.6342 15.8615 17.5618 15.8817 17.4885 15.9128C17.4151 15.9449 17.3446 15.9889 17.2758 16.0448C17.2126 16.0989 17.1603 16.1576 17.1181 16.2208C17.0769 16.285 17.0512 16.351 17.0411 16.4188C17.0292 16.4848 17.032 16.5527 17.0485 16.6205C17.0631 16.6865 17.098 16.7516 17.1511 16.8148C17.2272 16.9028 17.307 16.956 17.3895 16.9725C17.4729 16.9872 17.5572 16.9853 17.6425 16.9652C17.7259 16.9459 17.8102 16.9166 17.8955 16.8772C17.9835 16.8359 18.066 16.802 18.1448 16.7745C18.2227 16.7479 18.2961 16.7342 18.3648 16.7342C18.4326 16.7323 18.4931 16.7598 18.5445 16.8185C18.5665 16.846 18.5848 16.8762 18.5995 16.9102C18.6141 16.945 18.6187 16.9826 18.6141 17.0238C18.6114 17.0632 18.5976 17.1072 18.5738 17.1558C18.5518 17.2026 18.5124 17.2502 18.4565 17.2988C18.3831 17.3602 18.3116 17.4015 18.2438 17.4235C18.1751 17.4437 18.1118 17.451 18.0531 17.4455C17.9945 17.4409 17.9431 17.429 17.8991 17.4088C17.8579 17.3868 17.8276 17.3639 17.8075 17.3392L17.6315 17.4895C17.6755 17.5408 17.7305 17.5812 17.7965 17.6105C17.8597 17.6398 17.9321 17.6527 18.0128 17.6472C18.0935 17.6426 18.1778 17.6233 18.2658 17.5885C18.3538 17.5518 18.4455 17.495 18.5408 17.4162C18.704 17.275 18.7975 17.132 18.8195 16.9872C18.8415 16.8432 18.8011 16.7112 18.6985 16.5912C18.6251 16.5032 18.5454 16.4509 18.4601 16.4335C18.374 16.417 18.2878 16.4188 18.1998 16.4408C18.1118 16.461 18.0238 16.4912 17.9358 16.5325C17.8478 16.5747 17.7653 16.6095 17.6865 16.6388C17.6058 16.6682 17.5325 16.6856 17.4665 16.6902C17.3986 16.6957 17.34 16.67 17.2905 16.6132C17.2712 16.5893 17.2556 16.56 17.2428 16.5252C17.2309 16.4912 17.2263 16.4546 17.2281 16.4152C17.2309 16.3739 17.2428 16.3299 17.2648 16.2832C17.2868 16.2373 17.3253 16.1906 17.3785 16.1438C17.4326 16.0998 17.4866 16.0696 17.5398 16.0522C17.5939 16.0329 17.6443 16.0228 17.6901 16.0228C17.7369 16.021 17.7781 16.0283 17.8148 16.0448C17.8496 16.0595 17.8771 16.0797 17.8991 16.1035L18.0531 15.9715Z" fill="#FFFEFD"/>
<path d="M24.0802 14.5459C23.9601 14.6806 23.8464 14.776 23.7392 14.8319C23.6338 14.8887 23.5339 14.9263 23.4385 14.9456C23.2992 14.9776 23.1709 14.9859 23.0535 14.9712C22.938 14.9547 22.8372 14.9226 22.7492 14.8759C22.6612 14.8273 22.5897 14.7659 22.5365 14.6926C22.4824 14.6192 22.4458 14.5413 22.4265 14.4579C22.4091 14.3726 22.4082 14.2892 22.4229 14.2086C22.4394 14.1261 22.4714 14.0463 22.5182 13.9702C22.564 13.8923 22.6209 13.819 22.6869 13.7502C22.7547 13.6824 22.8317 13.6146 22.9179 13.5486C22.817 13.4587 22.7318 13.3762 22.6612 13.3029C22.5897 13.2296 22.5439 13.1443 22.5219 13.0462C22.509 12.9876 22.5054 12.9252 22.5109 12.8592C22.5182 12.7914 22.5374 12.7291 22.5695 12.6722C22.6034 12.6163 22.6502 12.565 22.7089 12.5182C22.7694 12.4724 22.8454 12.4394 22.9362 12.4192C23.0068 12.4027 23.0764 12.3991 23.1452 12.4082C23.213 12.4183 23.2754 12.4403 23.3322 12.4742C23.3881 12.5091 23.4367 12.554 23.4789 12.6099C23.5201 12.664 23.5494 12.73 23.5669 12.8079C23.5889 12.906 23.576 13.0086 23.5302 13.1159C23.4834 13.2241 23.3872 13.3322 23.2405 13.4422L24.1315 14.2049C24.1801 14.0976 24.2094 13.9803 24.2195 13.8529C24.2314 13.7264 24.2214 13.5687 24.1902 13.3799L24.4579 13.3212C24.4744 13.4514 24.4762 13.5696 24.4615 13.6769C24.4487 13.7823 24.4285 13.8786 24.3992 13.9666C24.3717 14.0527 24.3442 14.1242 24.3149 14.1829C24.2855 14.2416 24.2617 14.2846 24.2452 14.3112L24.6485 14.6412L24.2819 14.7219L24.0802 14.5459ZM22.9875 12.5696C22.9362 12.5796 22.894 12.598 22.8629 12.6246C22.8308 12.6493 22.8051 12.6786 22.7859 12.7126C22.7684 12.7446 22.7584 12.7786 22.7565 12.8152C22.7565 12.8501 22.7611 12.8849 22.7712 12.9216C22.7877 13.0004 22.8299 13.0737 22.8959 13.1416C22.9619 13.2103 23.0425 13.2827 23.1379 13.3579C23.1644 13.3341 23.1929 13.3047 23.2222 13.2699C23.2515 13.2332 23.2754 13.1929 23.2955 13.1489C23.3175 13.1031 23.3331 13.0526 23.3432 12.9986C23.3551 12.9454 23.3551 12.8904 23.3432 12.8336C23.3359 12.8042 23.3221 12.7731 23.3029 12.7382C23.2854 12.7016 23.2634 12.6686 23.2369 12.6392C23.2094 12.6081 23.1745 12.5861 23.1305 12.5732C23.0884 12.5586 23.0407 12.5576 22.9875 12.5696ZM23.0279 13.6512C22.8784 13.7759 22.7804 13.8886 22.7345 13.9886C22.6905 14.0894 22.6795 14.1902 22.7015 14.2929C22.7235 14.3882 22.7611 14.468 22.8152 14.5312C22.8711 14.5954 22.9362 14.6467 23.0095 14.6852C23.0847 14.7219 23.1644 14.7457 23.2479 14.7549C23.3304 14.765 23.411 14.7613 23.4899 14.7439C23.5064 14.7421 23.5339 14.7347 23.5705 14.7219C23.609 14.71 23.6512 14.6926 23.6952 14.6706C23.741 14.6486 23.7878 14.6211 23.8345 14.5862C23.8831 14.5523 23.9271 14.5083 23.9665 14.4542L23.0279 13.6512Z" fill="#FFFEFD"/>
<path d="M30.4282 14.5567L30.4502 14.4834C30.496 14.3321 30.5134 14.1956 30.5015 14.0727C30.4914 13.9481 30.4612 13.8381 30.4099 13.7427C30.3585 13.6474 30.2889 13.5686 30.2009 13.5044C30.1129 13.4384 30.0139 13.3889 29.9039 13.3541C29.7884 13.3201 29.6774 13.3091 29.5702 13.3211C29.462 13.3311 29.3594 13.3641 29.2622 13.4201C29.1669 13.4741 29.0825 13.5484 29.0092 13.6437C28.9377 13.7391 28.8818 13.8555 28.8405 13.9921C28.8057 14.1048 28.7901 14.2212 28.7929 14.3404C28.7974 14.4577 28.8222 14.5705 28.8662 14.6777C28.912 14.7831 28.9835 14.8766 29.0789 14.9601C29.1742 15.0453 29.297 15.1104 29.4492 15.1544C29.5931 15.1984 29.7334 15.2131 29.8709 15.1984C30.0102 15.1837 30.1385 15.1416 30.2559 15.0737L30.1789 14.9307C30.1202 14.9601 30.0634 14.9839 30.0102 15.0041C29.9589 15.0261 29.9075 15.0416 29.8562 15.0517C29.8067 15.0609 29.7581 15.0646 29.7095 15.0627C29.66 15.0627 29.6069 15.0536 29.5482 15.0371C29.484 15.0169 29.4199 14.9866 29.3539 14.9454C29.2897 14.906 29.2347 14.8537 29.1889 14.7877C29.1421 14.7199 29.11 14.6356 29.0935 14.5347C29.0789 14.4321 29.0917 14.3111 29.1339 14.1717L30.4282 14.5567ZM29.1742 14.0361C29.2008 13.9435 29.2365 13.8582 29.2805 13.7794C29.3245 13.7015 29.3759 13.6355 29.4345 13.5814C29.495 13.5255 29.5629 13.4861 29.6362 13.4641C29.7114 13.4421 29.7902 13.4439 29.8709 13.4677C30.034 13.5172 30.1422 13.6181 30.1935 13.7721C30.2449 13.9261 30.2375 14.1131 30.1715 14.3331L29.1742 14.0361Z" fill="#FFFEFD"/>
<path d="M32.4214 14.4033L32.1171 16.3027L32.2967 16.4163L33.8441 15.2833L33.7047 15.1953L32.4654 16.1047L32.4471 16.0937L32.6891 14.5683L32.4214 14.4033Z" fill="#FFFEFD"/>
<path d="M35.7486 18.3692L35.8036 18.3179C35.9182 18.2079 36.0026 18.0961 36.0566 17.9842C36.1098 17.8742 36.1382 17.7642 36.141 17.6542C36.1428 17.547 36.1236 17.4443 36.0823 17.3462C36.0429 17.2463 35.9842 17.1537 35.9063 17.0676C35.8229 16.9796 35.7312 16.9136 35.6313 16.8696C35.5332 16.8237 35.4278 16.7999 35.316 16.7999C35.206 16.7981 35.0941 16.8201 34.9823 16.8659C34.8723 16.9127 34.7641 16.9851 34.6596 17.0822C34.5735 17.1629 34.5029 17.2546 34.447 17.3572C34.3901 17.4599 34.3553 17.5681 34.3406 17.6836C34.326 17.7982 34.3379 17.9155 34.3773 18.0356C34.4158 18.1575 34.4882 18.2757 34.5936 18.3912C34.6981 18.5012 34.8136 18.5837 34.9383 18.6406C35.0648 18.6992 35.1968 18.7286 35.3343 18.7286L35.3416 18.5672C35.2756 18.5599 35.2142 18.5526 35.1583 18.5452C35.1042 18.5379 35.0529 18.5251 35.0043 18.5086C34.9576 18.4912 34.9126 18.4701 34.8686 18.4462C34.8265 18.4215 34.7852 18.3857 34.744 18.3399C34.7 18.2932 34.6596 18.2345 34.623 18.1639C34.5863 18.0952 34.5643 18.0191 34.557 17.9366C34.5515 17.8559 34.5689 17.7679 34.6083 17.6726C34.6468 17.5772 34.7201 17.481 34.8283 17.3829L35.7486 18.3692ZM34.931 17.2876C35.0016 17.2216 35.0749 17.1657 35.151 17.1189C35.2289 17.0731 35.3068 17.0419 35.3856 17.0272C35.4663 17.0107 35.5433 17.0117 35.6166 17.0309C35.6918 17.0511 35.7596 17.0914 35.8183 17.1519C35.9329 17.2766 35.9732 17.4177 35.9393 17.5736C35.9072 17.7322 35.8073 17.8907 35.6386 18.0502L34.931 17.2876Z" fill="#FFFEFD"/>
<path d="M36.7552 21.5725L37.7782 21.0445C37.8167 21.0243 37.8681 20.9941 37.9322 20.9528C37.9955 20.9134 38.0505 20.8593 38.0972 20.7915C38.1431 20.7227 38.1706 20.6384 38.1779 20.5385C38.1871 20.4376 38.1568 20.3185 38.0862 20.1791C38.0569 20.1177 38.0074 20.0563 37.9396 19.9958C37.8736 19.9326 37.7837 19.8821 37.6719 19.8455L37.5986 19.8235L37.5912 19.8088L37.7929 19.7061L37.6572 19.4385L36.0769 20.2525L36.2126 20.5201L37.1916 20.0141C37.2722 19.9729 37.3474 19.9481 37.4189 19.9408C37.4895 19.9335 37.5555 19.9399 37.6169 19.9591C37.6774 19.9793 37.7306 20.0086 37.7746 20.0508C37.8204 20.0948 37.8571 20.1443 37.8846 20.2011C37.9304 20.2891 37.9487 20.3643 37.9396 20.4285C37.9295 20.4945 37.9075 20.5504 37.8736 20.5971C37.8415 20.643 37.8021 20.6796 37.7562 20.7071C37.7122 20.7365 37.6802 20.7566 37.6609 20.7695L36.6196 21.3048L36.7552 21.5725Z" fill="#FFFEFD"/>
<path d="M38.8775 22.6961L39.0168 22.6631L39.0865 22.9638L39.6181 22.8391L39.6878 23.1361L39.1561 23.2608L39.2515 23.6788L39.1121 23.7118L39.0168 23.2938L37.8691 23.5614C37.8416 23.566 37.8105 23.5733 37.7738 23.5834C37.7371 23.5953 37.7041 23.6109 37.6748 23.6311C37.6473 23.6503 37.6271 23.6733 37.6125 23.7008C37.5978 23.7301 37.595 23.7668 37.6051 23.8108C37.617 23.8667 37.6473 23.9079 37.6968 23.9354C37.7481 23.962 37.8004 23.9813 37.8545 23.9941L37.7298 24.1958C37.5877 24.1078 37.4997 23.9923 37.4658 23.8511C37.453 23.7897 37.4511 23.7273 37.4585 23.6641C37.4658 23.6027 37.485 23.544 37.5171 23.4881C37.5483 23.434 37.595 23.3854 37.6565 23.3414C37.717 23.2974 37.7921 23.2653 37.8801 23.2461L38.9471 22.9968L38.8775 22.6961Z" fill="#FFFEFD"/>
<path d="M39.0832 26.8818C39.1492 26.8818 39.2088 26.8644 39.2629 26.8305C39.3188 26.7984 39.3665 26.7535 39.4059 26.6948C39.4444 26.6362 39.4756 26.5674 39.4976 26.4895C39.5214 26.4134 39.5342 26.3318 39.5342 26.2438C39.5342 26.1604 39.5232 26.0825 39.5012 26.0092C39.4811 25.9377 39.4499 25.8753 39.4059 25.8222C39.3637 25.7708 39.3115 25.7287 39.2482 25.6975C39.1868 25.6654 39.1144 25.648 39.0319 25.6462C38.9164 25.6462 38.8266 25.6718 38.7606 25.7232C38.6946 25.7763 38.6405 25.8423 38.5992 25.9212C38.5571 25.9991 38.5241 26.0834 38.5002 26.1742C38.4755 26.2668 38.4471 26.352 38.4159 26.4308C38.3866 26.5088 38.3499 26.5738 38.3059 26.6252C38.2619 26.6783 38.2005 26.704 38.1226 26.7022C38.0877 26.7022 38.0529 26.6958 38.0162 26.6838C37.9814 26.6738 37.9502 26.6545 37.9209 26.6252C37.8916 26.5958 37.8659 26.5564 37.8439 26.5078C37.8237 26.4583 37.8146 26.396 37.8146 26.3208C37.8146 26.2255 37.8292 26.1448 37.8586 26.0788C37.8879 26.0147 37.9227 25.9624 37.9649 25.9212C38.0089 25.879 38.0511 25.8488 38.0932 25.8295C38.1372 25.8121 38.1739 25.8048 38.2032 25.8075V25.5765C38.1372 25.5738 38.0722 25.5875 38.0089 25.6168C37.9447 25.648 37.8888 25.6957 37.8402 25.7598C37.7907 25.8231 37.7504 25.9001 37.7192 25.9908C37.6881 26.0807 37.6716 26.187 37.6716 26.3098C37.6716 26.5271 37.7192 26.6912 37.8146 26.8012C37.9099 26.9112 38.0355 26.9671 38.1922 26.9698C38.3068 26.9698 38.3985 26.9423 38.4672 26.8892C38.5378 26.8378 38.5937 26.7718 38.6359 26.6912C38.6772 26.6105 38.7102 26.5225 38.7349 26.4272C38.7615 26.3337 38.7881 26.2475 38.8156 26.1668C38.8449 26.0862 38.8797 26.0183 38.9219 25.9652C38.9632 25.9111 39.0209 25.8854 39.0942 25.8882C39.1254 25.8882 39.1575 25.8937 39.1896 25.9065C39.2235 25.9184 39.2556 25.9377 39.2849 25.9652C39.3142 25.9945 39.3381 26.0321 39.3582 26.0788C39.3802 26.1274 39.3912 26.187 39.3912 26.2585C39.3912 26.3291 39.3802 26.3905 39.3582 26.4418C39.3381 26.495 39.3142 26.539 39.2849 26.5738C39.2556 26.6105 39.2226 26.6371 39.1859 26.6545C39.1511 26.671 39.1181 26.6802 39.0869 26.6802L39.0832 26.8818Z" fill="#FFFEFD"/>
</g>
<mask id="mask3_2655_822" style="mask-type:luminance" maskUnits="userSpaceOnUse" x="59" y="60" width="6" height="7">
<path d="M59.2497 60.9307H64.2987V66.0347H59.2497V60.9307Z" fill="white"/>
</mask>
<g mask="url(#mask3_2655_822)">
<path d="M61.7577 60.9307C61.5129 62.9959 61.3149 63.1939 59.2497 63.4387C59.2534 63.4396 59.2579 63.4396 59.2625 63.4405C61.3159 63.6843 61.5139 63.886 61.7577 65.9467C62.0015 63.8814 62.1995 63.6834 64.2657 63.4387C62.1995 63.1939 62.0015 62.9959 61.7577 60.9307Z" fill="#FFFEFD"/>
</g>
<mask id="mask4_2655_822" style="mask-type:luminance" maskUnits="userSpaceOnUse" x="23" y="22" width="6" height="6">
<path d="M23.287 22.5049H28.391V27.6089H23.287V22.5049Z" fill="white"/>
</mask>
<g mask="url(#mask4_2655_822)">
<path d="M25.795 22.5049C25.5502 24.5701 25.3522 24.7681 23.287 25.0129C23.2907 25.0129 23.2952 25.0138 23.2989 25.0138H23.2998C25.3532 25.2576 25.5502 25.4593 25.795 27.5209C26.0388 25.4547 26.2368 25.2567 28.303 25.0129C26.2368 24.7681 26.0388 24.5701 25.795 22.5049Z" fill="#FFFEFD"/>
</g>
</svg>
